<svg width="24" height="24" viewBox="0 0 24 24" fill="none" xmlns="http://www.w3.org/2000/svg">
<path fill-rule="evenodd" clip-rule="evenodd" d="M12 22C17.5228 22 22 17.5228 22 12C22 6.47715 17.5228 2 12 2C6.47715 2 2 6.47715 2 12C2 17.5228 6.47715 22 12 22ZM12 24C18.6274 24 24 18.6274 24 12C24 5.37258 18.6274 0 12 0C5.37258 0 0 5.37258 0 12C0 18.6274 5.37258 24 12 24Z" fill="#381DDB"/>
<path fill-rule="evenodd" clip-rule="evenodd" d="M10.9507 7.80162C10.5275 7.39952 9.85126 7.3994 9.42799 7.80162L10.9507 7.80162ZM10.9507 7.80162L14.5714 11.2414C14.7869 11.4463 14.8996 11.7211 14.8996 11.9999C14.8996 12.2789 14.7868 12.5538 14.5713 12.7585L10.9507 16.1982C10.5275 16.6004 9.85116 16.6006 9.42789 16.1983C8.99019 15.7825 8.99017 15.097 9.4279 14.6811L12.2501 11.9999L9.42799 9.31888C8.99045 8.90301 8.99031 8.21752 9.42799 7.80162" fill="#381DDB"/>
</svg>
