<svg width="70" height="70" viewBox="0 0 70 70" fill="none" xmlns="http://www.w3.org/2000/svg">
<g clip-path="url(#clip0_1_203)">
<path d="M57.9206 21.7981L69.5993 10.1195C70.1296 9.5942 70.1338 8.73841 69.6085 8.20787C69.3657 7.96271 69.0385 7.8196 68.6936 7.80811L68.7342 7.88921L62.3812 7.67294L62.1649 1.31998C62.1398 0.573841 61.5146 -0.0105976 60.7685 0.0145777C60.4236 0.026236 60.0962 0.169178 59.8535 0.414341L48.1884 12.0254C47.9252 12.2903 47.7833 12.6524 47.7964 13.0256V14.3773C33.9272 4.82306 14.939 8.32107 5.38467 22.1901C-4.16961 36.0592 -0.671761 55.0476 13.1975 64.6019C27.0665 74.1562 46.0549 70.6581 55.6092 56.7891C62.7852 46.3724 62.7852 32.607 55.6092 22.1901H56.9609C57.3201 22.1922 57.6655 22.0511 57.9206 21.7981ZM58.3261 39.5053C58.3464 54.8687 45.9083 67.3396 30.5449 67.3598C15.1816 67.3801 2.71068 54.942 2.69041 39.5787C2.67013 24.2153 15.1083 11.7444 30.4716 11.7241C36.8328 11.7157 43.0047 13.8879 47.9586 17.8782L48.0262 20.1356L42.6194 25.5423C34.9281 18.8013 23.2284 19.5717 16.4873 27.263C9.74625 34.9543 10.5167 46.6541 18.208 53.3952C25.8993 60.1362 37.5991 59.3658 44.3401 51.6745C50.3968 44.7639 50.4699 34.4574 44.5118 27.4617L49.9186 22.055L52.1489 22.1361C56.1242 27.0544 58.3031 33.1814 58.3261 39.5053ZM29.6432 40.411C30.1703 40.9351 31.0219 40.9351 31.5491 40.411L34.2525 37.7076C34.5159 38.2513 34.6544 38.847 34.658 39.4513C34.658 41.6908 32.8425 43.5063 30.6029 43.5063C28.3633 43.5063 26.5478 41.6908 26.5478 39.4513C26.5478 37.2117 28.3633 35.3962 30.6029 35.3962C31.2071 35.3997 31.8029 35.5383 32.3466 35.8017L29.6432 38.5051C29.1191 39.0322 29.1191 39.8838 29.6432 40.411ZM34.32 33.8147C31.2074 31.7547 27.0141 32.608 24.9542 35.7206C22.8942 38.8332 23.7474 43.0265 26.86 45.0865C29.9727 47.1465 34.166 46.2932 36.2259 43.1806C37.7226 40.919 37.7226 37.982 36.2259 35.7206L42.633 29.3136C48.2498 35.9828 47.3963 45.9426 40.7271 51.5594C34.0578 57.1762 24.098 56.3228 18.4812 49.6535C12.8644 42.9842 13.7179 33.0245 20.3871 27.4077C26.2639 22.4584 34.8502 22.4584 40.7271 27.4077L34.32 33.8147ZM50.7566 19.2975L50.5674 13.5393L59.6237 4.48294L59.7724 8.98408C59.7724 9.73055 60.3777 10.3358 61.1241 10.3358L65.6253 10.4845L56.5149 19.4867L50.7566 19.2975Z" fill="#381DDB"/>
</g>
<defs>
<clipPath id="clip0_1_203">
<rect width="70" height="70" fill="white"/>
</clipPath>
</defs>
</svg>
