<svg width="30" height="30" viewBox="0 0 30 30" fill="none" xmlns="http://www.w3.org/2000/svg">
<path fill-rule="evenodd" clip-rule="evenodd" d="M13.2709 22.3043C12.7041 22.468 12.0909 22.5508 11.4474 22.5508C10.7308 22.5508 10.042 22.4686 9.39973 22.3061C8.15688 21.9925 7.23848 21.398 6.8095 20.6318C6.62461 20.3007 6.53096 19.9479 6.53096 19.5823C6.53096 19.2059 6.62099 18.824 6.79862 18.4458C7.47956 16.9945 9.27466 16.0181 11.2631 16.0181H11.3199C11.1586 15.7335 11.0806 15.4387 11.0806 15.1287C11.0806 14.9746 11.1012 14.8176 11.1423 14.6574C9.05654 14.6103 7.49588 13.0829 7.49588 11.0691C7.49588 9.64737 8.63239 8.26193 10.2577 7.70244C10.7441 7.53447 11.2401 7.44867 11.7277 7.44867H16.188C16.3396 7.44867 16.4744 7.54715 16.5215 7.69156C16.5686 7.83536 16.5167 7.99366 16.394 8.08248L15.3965 8.80451C15.3366 8.8468 15.2647 8.86976 15.1904 8.86976H14.8333C15.2944 9.42261 15.5644 10.2111 15.5644 11.0963C15.5644 12.0733 15.0702 12.9971 14.1705 13.701C13.4757 14.2424 13.4485 14.3916 13.4485 14.7003C13.457 14.8701 13.9409 15.4242 14.4751 15.8018C15.7191 16.6815 16.1819 17.5449 16.1819 18.9854C16.1813 20.4904 15.0388 21.7907 13.2709 22.3043ZM23.3436 14.6538C23.3436 14.8472 23.1859 15.0043 22.9931 15.0043H20.4585V17.5401C20.4585 17.7335 20.3008 17.8905 20.1093 17.8905H19.3872C19.1927 17.8905 19.0356 17.7335 19.0356 17.5401V15.0043H16.5028C16.3094 15.0043 16.1523 14.8484 16.1523 14.6538V13.933C16.1523 13.7397 16.3094 13.5814 16.5028 13.5814H19.0356V11.0479C19.0356 10.854 19.1927 10.6975 19.3872 10.6975H20.1093C20.3008 10.6975 20.4585 10.854 20.4585 11.0479V13.5814H22.9925C23.1853 13.5814 23.343 13.7384 23.343 13.9318L23.3436 14.6538ZM12.9906 17.4857C12.934 17.4481 12.8766 17.4087 12.8179 17.3684L12.8178 17.3683C12.7756 17.3393 12.7328 17.3099 12.6891 17.2803C12.3852 17.1873 12.0625 17.1389 11.732 17.1347H11.6921C10.1732 17.1347 8.84151 18.0537 8.84151 19.1026C8.84151 20.2445 9.98285 21.137 11.439 21.137C13.3598 21.137 14.3331 20.4735 14.3331 19.1685C14.3331 19.0452 14.3186 18.9171 14.2878 18.7884C14.1584 18.284 13.6968 17.9685 12.9987 17.4913L12.9906 17.4857ZM11.9149 13.5052H11.9137H11.8998C10.9349 13.475 9.9706 12.3349 9.7978 11.0153C9.70173 10.2776 9.85701 9.61414 10.2238 9.19543C10.46 8.92475 10.7712 8.78094 11.1198 8.78094L11.1591 8.78215C12.1445 8.81055 13.0889 9.9102 13.2611 11.231C13.359 11.9699 13.194 12.666 12.8218 13.0901C12.5844 13.362 12.2781 13.5052 11.9149 13.5052Z" fill="#222222"/>
</svg>
