<svg width="30" height="30" viewBox="0 0 30 30" fill="none" xmlns="http://www.w3.org/2000/svg">
<path d="M11.25 22.2656H7.5V9.14055H11.25V22.2656ZM9.49123 8.3362C8.51998 8.3362 7.73438 7.54868 7.73438 6.57743C7.73438 5.60618 8.52189 4.81866 9.49123 4.81866C10.4625 4.82051 11.25 5.60803 11.25 6.57743C11.25 7.54868 10.4625 8.3362 9.49123 8.3362ZM24.375 22.2656H20.625V14.1506C20.625 13.1999 20.3531 12.5344 19.185 12.5344C17.2481 12.5344 16.875 14.1506 16.875 14.1506V22.2656H13.125V9.14055H16.875V10.3949C17.4112 9.98431 18.7499 9.1424 20.625 9.1424C21.84 9.1424 24.375 9.8699 24.375 14.2649V22.2656Z" fill="#222222"/>
</svg>
