<svg width="30" height="30" viewBox="0 0 30 30" fill="none" xmlns="http://www.w3.org/2000/svg">
<path d="M18.382 14.7691C18.0214 14.5278 17.5792 14.32 17.0679 14.1516C16.5629 13.9853 15.992 13.8316 15.3704 13.6947C14.8792 13.5775 14.5211 13.4872 14.3079 13.4269C14.0995 13.3672 13.8917 13.2847 13.6898 13.1797C13.4951 13.0797 13.3411 12.9594 13.232 12.8222C13.1289 12.6925 13.0789 12.5422 13.0789 12.3622C13.0789 12.0688 13.2345 11.821 13.5548 11.6047C13.887 11.3803 14.3348 11.2669 14.8851 11.2669C15.4779 11.2669 15.9092 11.3694 16.1673 11.5716C16.4329 11.7794 16.6648 12.0741 16.8564 12.4491C17.0214 12.7422 17.1707 12.946 17.3145 13.0766C17.4692 13.2169 17.692 13.2891 17.9764 13.2891C18.2889 13.2891 18.5545 13.175 18.7648 12.95C18.9739 12.7263 19.0798 12.47 19.0798 12.1875C19.0798 11.8944 18.9989 11.5907 18.8398 11.286C18.6817 10.9847 18.4307 10.6941 18.0929 10.4228C17.7579 10.1532 17.3311 9.93409 16.8248 9.7719C16.3217 9.61097 15.7182 9.5294 15.0329 9.5294C14.1751 9.5294 13.417 9.65253 12.7795 9.89472C12.1339 10.1403 11.6326 10.4988 11.2892 10.9594C10.9429 11.4235 10.7676 11.9616 10.7676 12.5585C10.7676 13.1844 10.9348 13.7175 11.2645 14.1413C11.5895 14.5597 12.0332 14.8941 12.5839 15.135C13.1223 15.3703 13.7992 15.5791 14.5964 15.7547C15.1823 15.8807 15.6564 16.0013 16.0054 16.1135C16.3395 16.221 16.6157 16.3772 16.8248 16.5782C17.0242 16.7707 17.1214 17.0153 17.1214 17.3275C17.1214 17.7222 16.9351 18.0444 16.5529 18.3132C16.1614 18.5882 15.6411 18.7278 15.0064 18.7278C14.5445 18.7278 14.1695 18.6588 13.8911 18.5235C13.6145 18.3885 13.3976 18.2166 13.247 18.0113C13.0904 17.7975 12.9417 17.5272 12.8057 17.2063C12.6839 16.9122 12.5326 16.6838 12.3557 16.5297C12.1707 16.3688 11.9429 16.2875 11.6795 16.2875C11.3579 16.2875 11.0882 16.3907 10.8779 16.5941C10.6654 16.7997 10.5576 17.0507 10.5576 17.34C10.5576 17.8032 10.7229 18.2838 11.0492 18.7675C11.3723 19.2469 11.7976 19.6353 12.3136 19.9219C13.0354 20.316 13.9601 20.5153 15.0629 20.5153C15.9814 20.5153 16.7889 20.3691 17.4626 20.0813C18.1426 19.7903 18.6673 19.3807 19.0226 18.8638C19.3792 18.3441 19.5601 17.751 19.5601 17.1003C19.5601 16.556 19.4551 16.0878 19.2476 15.7088C19.0411 15.3319 18.7498 15.0153 18.382 14.7691ZM18.5954 23.4003C17.8336 23.4003 17.117 23.2028 16.4904 22.8566C16.0348 22.9435 15.5648 22.9894 15.0842 22.9894C10.8436 22.9894 7.40543 19.4519 7.40543 15.0885C7.40543 14.5441 7.45918 14.0128 7.56106 13.4997C7.17262 12.8194 6.94887 12.0278 6.94887 11.1822C6.94887 8.6519 8.94262 6.60034 11.402 6.60034C12.2732 6.60034 13.0848 6.85847 13.7714 7.30347C14.1982 7.22784 14.637 7.18784 15.0842 7.18784C19.3254 7.18784 22.7632 10.7253 22.7632 15.0885C22.7632 15.6703 22.7014 16.2375 22.5857 16.7838C22.8817 17.3969 23.0486 18.0878 23.0486 18.8191C23.0482 21.3485 21.0548 23.4003 18.5954 23.4003Z" fill="#222222"/>
</svg>
