<svg width="14" height="14" viewBox="0 0 14 14" fill="none" xmlns="http://www.w3.org/2000/svg">
<path fill-rule="evenodd" clip-rule="evenodd" d="M7.10912 1.3263C7.49322 0.957883 8.11355 0.957883 8.49765 1.3263L13.7092 6.32523C14.0969 6.69715 14.0969 7.30281 13.7092 7.67473L8.49778 12.6737C8.30509 12.8583 8.05342 12.95 7.80352 12.95C7.55363 12.95 7.30193 12.8584 7.10928 12.6737C6.72154 12.3018 6.72151 11.6961 7.10925 11.3242L10.6257 7.95106H0.985036C0.447111 7.95106 0 7.53107 0 6.99998C0 6.46882 0.44712 6.0489 0.985036 6.0489H10.6257L7.10912 2.67581C6.72138 2.30388 6.72138 1.69823 7.10912 1.3263Z" fill="white"/>
</svg>
