<svg width="30" height="30" viewBox="0 0 30 30" fill="none" xmlns="http://www.w3.org/2000/svg">
<path fill-rule="evenodd" clip-rule="evenodd" d="M17.6878 7.01581H16.6686V11.4764C16.6686 11.8744 16.7026 12.1442 16.7591 12.3151C16.8616 12.6006 17.0887 12.7341 17.4177 12.7341C17.7906 12.7341 18.1785 12.5079 18.5855 12.0414V12.6564H19.6075V7.01581H18.5855V11.3272C18.3587 11.6473 18.1442 11.8057 17.9398 11.8057C17.8029 11.8057 17.7225 11.7247 17.7001 11.5663C17.6878 11.5328 17.6878 11.4086 17.6878 11.1689V11.1689V7.01581ZM13.1281 7.5262C12.9108 7.81131 12.8083 8.25203 12.8083 8.8551V10.8303C12.8083 11.4297 12.9108 11.8747 13.1281 12.1568C13.4108 12.5416 13.8088 12.7341 14.3183 12.7341C14.8302 12.7341 15.2279 12.5416 15.5106 12.1568C15.7248 11.8747 15.8273 11.43 15.8273 10.8303V8.8551C15.8273 8.25203 15.7248 7.811 15.5106 7.5262C15.2279 7.14042 14.8302 6.94768 14.3183 6.94768C13.8088 6.94768 13.4108 7.14042 13.1281 7.5262ZM10.8797 8.0596L10.075 5.08722H8.88268C9.0007 5.43414 9.12119 5.78174 9.24171 6.12942L9.24171 6.12942C9.36502 6.48516 9.48837 6.84099 9.60912 7.19627C9.97281 8.25203 10.1996 9.04783 10.3024 9.59105V12.6567H11.4355V9.59105L12.7991 5.08722H11.6528L10.8797 8.0596ZM21.2663 24.681C22.1425 24.5831 22.8702 23.9263 23.0752 23.0366C23.3671 21.7694 23.3683 20.3855 23.3683 19.0806V19.0561C23.3683 17.7583 23.3683 16.3842 23.0792 15.1246C22.8739 14.2345 22.1459 13.5781 21.2697 13.4802C19.1944 13.2484 17.0939 13.2472 15.003 13.2484C12.9114 13.2472 10.811 13.2484 8.73567 13.4802C7.85946 13.5778 7.13209 14.2345 6.92738 15.1246C6.63582 16.3921 6.63214 17.7756 6.63214 19.0806C6.63214 20.3855 6.63214 21.7694 6.92401 23.0366C7.12841 23.9266 7.85639 24.5831 8.7326 24.681C10.8076 24.9127 12.9084 24.9139 14.9993 24.9127C17.0912 24.9139 19.1907 24.9127 21.2663 24.681ZM19.4036 17.4659C19.6957 17.0838 20.0975 16.8939 20.6149 16.8939C21.1225 16.8939 21.5249 17.0841 21.8075 17.4653C22.0196 17.7477 22.1206 18.1841 22.1206 18.7804V19.9365H20.0975V20.9266C20.0975 21.4428 20.2675 21.7006 20.6149 21.7006C20.8638 21.7006 21.0093 21.5656 21.067 21.2952C21.0759 21.2403 21.0891 21.0153 21.0891 20.6102H22.1206V20.7572C22.1206 21.0834 22.1086 21.3078 22.0991 21.4091C22.0653 21.6331 21.9856 21.836 21.8628 22.0152C21.5829 22.4206 21.1683 22.6204 20.6401 22.6204C20.111 22.6204 19.708 22.4298 19.4161 22.0486C19.2007 21.7691 19.0911 21.3296 19.0911 20.7363V18.781C19.0911 18.1847 19.189 17.7483 19.4036 17.4659ZM20.0981 19.095H21.1096V18.5785C21.1096 18.0626 20.9402 17.8041 20.6057 17.8041C20.2678 17.8041 20.0981 18.0622 20.0981 18.5785V19.095ZM13.4503 21.2277C13.2259 21.5447 13.0138 21.7009 12.8107 21.7009C12.6756 21.7009 12.5986 21.6214 12.5741 21.4643C12.5648 21.4317 12.5648 21.3084 12.5648 21.0714V16.962H11.5533V21.375C11.5533 21.7693 11.5873 22.0357 11.6426 22.2051C11.7442 22.4881 11.9688 22.6207 12.2942 22.6207C12.6664 22.6207 13.0482 22.396 13.4503 21.9351V22.544H14.4624V16.962H13.4503V21.2277ZM16.3485 17.4992C16.6747 17.0972 17.0218 16.894 17.3938 16.894C17.7958 16.894 18.0671 17.1057 18.2019 17.5244C18.2697 17.7487 18.3044 18.1176 18.3044 18.6461V20.8687C18.3044 21.3852 18.2697 21.7569 18.2019 21.9935C18.0668 22.4091 17.7961 22.6208 17.3938 22.6208C17.0338 22.6208 16.687 22.4207 16.3485 22.003V22.5438H15.3372V15.0526H16.3485V17.4992ZM16.8524 21.701C17.1446 21.701 17.2925 21.4524 17.2925 20.9479V18.5657C17.2925 18.0624 17.1443 17.804 16.8524 17.804C16.6864 17.804 16.5173 17.8831 16.3482 18.0504V21.4521C16.5173 21.6216 16.6864 21.701 16.8524 21.701ZM7.88019 16.1068H9.06945V22.5435H10.1946V16.1068H11.4059V15.0526H7.88019V16.1068ZM14.806 11.0224C14.806 11.5442 14.6479 11.8053 14.3186 11.8053C13.989 11.8053 13.8306 11.5445 13.8306 11.0224V8.64973C13.8306 8.12799 13.989 7.86774 14.3186 7.86774C14.6479 7.86774 14.806 8.12769 14.806 8.64973V11.0224Z" fill="#222222"/>
</svg>
